HIERARCHY
ROOT Hips
{
	OFFSET 0.000000 0.000000 0.000000
	CHANNELS 6 Xposition Yposition Zposition Zrotation Yrotation Xrotation 
	JOINT LHipJoint
	{
		OFFSET 0.000000 0.000000 0.000000
		CHANNELS 3 Zrotation Yrotation Xrotation
		JOINT LeftUpLeg
		{
			OFFSET 1.363060 -1.794630 0.839290
			CHANNELS 3 Zrotation Yrotation Xrotation
			JOINT LeftLeg
			{
				OFFSET 2.448110 -6.726130 0.000000
				CHANNELS 3 Zrotation Yrotation Xrotation
				JOINT LeftFoot
				{
					OFFSET 2.562200 -7.039590 0.000000
					CHANNELS 3 Zrotation Yrotation Xrotation
					JOINT LeftToeBase
					{
						OFFSET 0.157640 -0.433110 2.322550
						CHANNELS 3 Zrotation Yrotation Xrotation
						End Site
						{
							OFFSET 0.000000 0.000000 0.000000
						}
					}
				}
			}
		}
	}
	JOINT RHipJoint
	{
		OFFSET 0.000000 0.000000 0.000000
		CHANNELS 3 Zrotation Yrotation Xrotation
		JOINT RightUpLeg
		{
			OFFSET -1.305520 -1.794630 0.839290
			CHANNELS 3 Zrotation Yrotation Xrotation
			JOINT RightLeg
			{
				OFFSET -2.542530 -6.985550 0.000000
				CHANNELS 3 Zrotation Yrotation Xrotation
				JOINT RightFoot
				{
					OFFSET -2.568260 -7.056230 0.000000
					CHANNELS 3 Zrotation Yrotation Xrotation
					JOINT RightToeBase
					{
						OFFSET -0.164730 -0.452590 2.363150
						CHANNELS 3 Zrotation Yrotation Xrotation
						End Site
						{
							OFFSET 0.000000 0.000000 0.000000
						}
					}
				}
			}
		}
	}
	JOINT LowerBack
	{
		OFFSET 0.000000 0.000000 0.000000
		CHANNELS 3 Zrotation Yrotation Xrotation
		JOINT Spine
		{
			OFFSET 0.028270 2.035590 -0.193380
			CHANNELS 3 Zrotation Yrotation Xrotation
			JOINT Spine1
			{
				OFFSET 0.056720 2.048850 -0.042750
				CHANNELS 3 Zrotation Yrotation Xrotation
				JOINT Neck
				{
					OFFSET 0.000000 0.000000 0.000000
					CHANNELS 3 Zrotation Yrotation Xrotation
					JOINT Neck1
					{
						OFFSET -0.054170 1.746240 0.172020
						CHANNELS 3 Zrotation Yrotation Xrotation
						JOINT Head
						{
							OFFSET 0.104070 1.761360 -0.123970
							CHANNELS 3 Zrotation Yrotation Xrotation
							End Site
							{
								OFFSET 0.000000 0.000000 0.000000
							}
						}
					}
				}
				JOINT LeftShoulder
				{
					OFFSET 0.000000 0.000000 0.000000
					CHANNELS 3 Zrotation Yrotation Xrotation
					JOINT LeftArm
					{
						OFFSET 3.362410 1.200890 -0.311210
						CHANNELS 3 Zrotation Yrotation Xrotation
						JOINT LeftForeArm
						{
							OFFSET 4.983000 -0.000000 -0.000000
							CHANNELS 3 Zrotation Yrotation Xrotation
							JOINT LeftHand
							{
								OFFSET 3.483560 -0.000000 -0.000000
								CHANNELS 3 Zrotation Yrotation Xrotation
								JOINT LeftFingerBase
								{
									OFFSET 0.000000 0.000000 0.000000
									CHANNELS 3 Zrotation Yrotation Xrotation
									JOINT LeftHandIndex1
									{
										OFFSET 0.715260 -0.000000 -0.000000
										CHANNELS 3 Zrotation Yrotation Xrotation
										End Site
										{
											OFFSET 0.000000 0.000000 0.000000
										}
									}
								}
								JOINT LThumb
								{
									OFFSET 0.000000 0.000000 0.000000
									CHANNELS 3 Zrotation Yrotation Xrotation
									End Site
									{
										OFFSET 0.000000 0.000000 0.000000
									}
								}
							}
						}
					}
				}
				JOINT RightShoulder
				{
					OFFSET 0.000000 0.000000 0.000000
					CHANNELS 3 Zrotation Yrotation Xrotation
					JOINT RightArm
					{
						OFFSET -3.136600 1.374050 -0.404650
						CHANNELS 3 Zrotation Yrotation Xrotation
						JOINT RightForeArm
						{
							OFFSET -5.241900 -0.000000 -0.000000
							CHANNELS 3 Zrotation Yrotation Xrotation
							JOINT RightHand
							{
								OFFSET -3.444170 -0.000000 -0.000000
								CHANNELS 3 Zrotation Yrotation Xrotation
								JOINT RightFingerBase
								{
									OFFSET 0.000000 0.000000 0.000000
									CHANNELS 3 Zrotation Yrotation Xrotation
									JOINT RightHandIndex1
									{
										OFFSET -0.622530 -0.000000 -0.000000
										CHANNELS 3 Zrotation Yrotation Xrotation
										End Site
										{
											OFFSET 0.000000 0.000000 0.000000
										}
									}
								}
								JOINT RThumb
								{
									OFFSET 0.000000 0.000000 0.000000
									CHANNELS 3 Zrotation Yrotation Xrotation
									End Site
									{
										OFFSET 0.000000 0.000000 0.000000
									}
								}
							}
						}
					}
				}
			}
		}
	}
}
MOTION
Frames: 12
Frame Time: 0.008333
0.309117 17.601248 -1.550987 -2.152709 6.508125 7.113546 1.856745 4.880351 2.836581 -14.219888 -23.142013 -16.403393 1.202951 7.588549 25.474692 -0.070011 1.002485 -4.529534 1.568900 -7.903700 -22.421900 -4.060549 -5.193296 2.661851 22.590884 14.069459 -14.255260 -1.658841 -6.461980 23.412173 0.609711 -7.780635 -11.622586 -1.753200 8.331800 -23.726500 -3.106850 -0.493953 1.699550 2.269104 -1.321190 24.308599 4.825594 -0.759331 3.056003 -28.149074 -18.367486 17.720578 1.421248 -26.968958 20.915244 4.076000 -15.296700 13.784300 -4.762265 -7.959991 0.295779 6.685367 -60.544715 -40.130725 123.295390 -54.501703 -88.591194 -4.991465 -3.614973 -69.865383 -51.773470 30.388659 -26.824200 -7.125000 0.000000 0.000000 -66.506400 47.018300 -6.040800 4.248003 7.302367 0.584022 132.231681 73.752536 60.498289 -5.670438 6.406371 0.454189 1.385816 -4.457285 79.824534 33.103949 9.809155 5.188000 7.125000 0.000000 0.000000 35.965900 -18.580200 29.058700 
0.307793 17.602776 -1.522357 -2.306636 6.402772 6.799565 1.847308 4.905390 2.862716 -14.148370 -23.000614 -15.967968 1.198523 7.574681 25.459680 -0.053304 0.941812 -4.662548 1.498700 -7.733000 -21.905900 -4.055197 -5.206506 2.643512 22.851215 13.987541 -13.698564 -1.642472 -6.395851 23.283936 0.609641 -7.768566 -11.636619 -1.771100 8.372000 -23.849700 -3.021579 -0.468668 1.495678 2.289486 -1.296459 24.260267 4.830123 -0.754142 3.160155 -28.970198 -18.386999 17.832894 2.756598 -27.145071 20.683509 4.700700 -15.460500 14.116300 -4.752405 -7.813417 0.575177 8.616034 -60.008375 -41.898094 123.378064 -54.516667 -88.642475 -4.999154 -3.604061 -69.672322 -51.872398 30.403435 -26.925200 -7.125000 0.000000 0.000000 -66.581600 47.024500 -6.076400 4.288564 7.342042 0.460569 133.225665 74.191945 61.188412 -5.687516 6.475102 0.460868 1.327240 -4.454567 80.326733 32.814507 9.803872 5.135000 7.125000 0.000000 0.000000 35.838600 -18.625700 28.839300 
0.311970 17.609501 -1.492709 -2.358654 6.332665 6.697682 1.829485 4.914878 2.870965 -14.147323 -22.978356 -15.685135 1.183187 7.549269 25.400165 -0.060206 1.031083 -4.849229 1.487900 -7.706300 -21.825500 -4.051665 -5.219930 2.628861 22.952237 13.830032 -13.383721 -1.627443 -6.344882 23.167150 0.575185 -7.575870 -11.735023 -1.714000 8.243000 -23.454600 -2.885242 -0.435492 1.052199 2.254770 -1.243030 24.109740 4.788104 -0.720461 3.408617 -27.622822 -18.756903 16.983773 1.870201 -27.305031 20.566770 4.128500 -15.368800 13.759700 -4.790991 -7.800760 0.856458 10.689083 -59.370589 -43.726023 123.483537 -54.521274 -88.727411 -5.000985 -3.603842 -69.610298 -51.867991 30.427230 -26.946500 -7.125000 0.000000 0.000000 -66.625500 47.052200 -6.164200 4.289075 7.284605 0.301224 134.194938 74.667394 61.796808 -5.712110 6.520928 0.465008 1.280381 -4.434743 80.760814 32.398400 9.845062 5.076300 7.125000 0.000000 0.000000 35.648300 -18.659800 28.551100 
0.314823 17.613474 -1.464691 -2.279301 6.279907 6.631660 1.812997 4.920474 2.876757 -14.290699 -22.964156 -15.416492 1.165863 7.514161 25.323775 -0.069090 1.121116 -5.011112 1.428400 -7.557200 -21.377000 -4.044809 -5.232989 2.620041 22.889007 13.748531 -13.137262 -1.612125 -6.305746 23.063390 0.554127 -7.472941 -11.829953 -1.619900 8.024900 -22.789800 -2.988402 -0.443200 0.661098 2.236620 -1.245697 23.916848 4.879223 -0.723210 3.559052 -27.281333 -18.953345 16.379936 1.693076 -27.447960 20.617565 3.951700 -15.383300 13.799500 -4.812672 -7.755633 1.097970 12.437359 -58.625252 -45.316422 123.513361 -54.540266 -88.739913 -5.004577 -3.625169 -69.654655 -52.105797 30.427716 -27.138500 -7.125000 0.000000 0.000000 -66.729200 47.027600 -6.122000 4.311113 7.261318 0.168112 135.301838 75.036112 62.657193 -5.693515 6.499674 0.476201 1.238490 -4.437979 81.032919 32.261035 9.816099 5.044200 7.125000 0.000000 0.000000 35.589000 -18.692000 28.438900 
0.314008 17.611029 -1.436876 -2.219351 6.203000 6.405379 1.801925 4.939115 2.894237 -14.456745 -22.873424 -14.985676 1.152294 7.473658 25.246194 -0.085584 1.185083 -4.947806 1.382600 -7.440200 -21.026300 -4.039968 -5.249057 2.605851 22.890608 13.699986 -12.715628 -1.598498 -6.263863 22.969909 0.569111 -7.557822 -11.826013 -1.627200 8.042000 -22.841800 -3.120381 -0.414811 0.542692 2.251894 -1.207695 23.708305 4.992986 -0.698108 3.497837 -27.273926 -19.088180 16.054499 1.775178 -27.605578 20.641747 3.930700 -15.444300 13.901600 -4.828790 -7.703628 1.287579 13.779824 -58.038218 -46.468935 123.591798 -54.541536 -88.796968 -5.018877 -3.614131 -69.552188 -52.206436 30.536813 -27.305800 -7.125000 0.000000 0.000000 -66.908500 47.089000 -6.338900 4.336839 7.251123 0.063610 136.172327 75.391868 63.271778 -5.700918 6.524628 0.481989 1.183490 -4.441093 81.331741 32.129589 9.684492 4.965200 7.125000 0.000000 0.000000 35.558600 -18.808300 28.274600 
0.312887 17.608584 -1.407126 -2.160031 6.125208 6.159499 1.798670 4.961196 2.912733 -14.639963 -22.777092 -14.532757 1.146764 7.447157 25.213044 -0.107138 1.275547 -4.883182 1.381100 -7.436400 -21.015000 -4.027571 -5.262527 2.588952 22.880478 13.644435 -12.243798 -1.577414 -6.206146 22.830657 0.577225 -7.613975 -11.862716 -1.646400 8.087000 -22.978600 -3.302535 -0.401872 0.464025 2.373692 -1.202426 23.210284 5.104634 -0.669515 3.085339 -27.470920 -18.957145 16.444327 1.726428 -27.588005 20.627939 3.955500 -15.479800 13.845800 -4.849701 -7.678598 1.246286 13.652587 -57.598837 -46.003438 123.561397 -54.538885 -88.772650 -5.015599 -3.626116 -69.359931 -52.469582 30.290486 -27.336300 -7.125000 0.000000 0.000000 -66.718000 46.895600 -5.749400 4.363391 7.222279 0.095523 135.407442 75.432054 62.303925 -5.730435 6.575466 0.460220 1.123018 -4.385818 81.630915 31.560648 9.416466 4.728700 7.125000 0.000000 0.000000 35.390000 -19.137000 27.707400 
0.312581 17.609501 -1.375847 -2.198783 6.071071 5.905022 1.795933 4.981085 2.927471 -14.705904 -22.741483 -14.082731 1.142953 7.431446 25.205020 -0.103588 1.300086 -5.071128 1.346900 -7.347500 -20.749000 -4.010567 -5.277804 2.569345 22.980580 13.519011 -11.731253 -1.552460 -6.134306 22.659922 0.573534 -7.596795 -11.911328 -1.658200 8.114500 -23.062500 -3.469238 -0.471229 0.445093 2.514206 -1.309721 22.738705 5.221769 -0.696885 2.725185 -27.570249 -18.798895 16.533857 1.663321 -27.480753 20.626842 3.953100 -15.460800 13.803700 -4.876382 -7.654251 1.240071 13.718064 -56.676828 -45.682112 123.507728 -54.523568 -88.738683 -4.983459 -3.655605 -69.258942 -52.484853 29.839930 -27.014000 -7.125000 0.000000 0.000000 -66.196900 46.607100 -4.823200 4.402847 7.192217 0.092439 135.543818 75.417301 62.269566 -5.694789 6.525342 0.452765 1.058057 -4.350707 81.972569 31.176585 9.188373 4.557000 7.125000 0.000000 0.000000 35.283800 -19.385400 27.310000 
0.313295 17.608788 -1.344467 -2.337778 6.038599 5.651522 1.795494 4.995868 2.943464 -14.649778 -22.622245 -13.732761 1.143932 7.429987 25.221269 -0.097580 1.296894 -5.183617 1.368900 -7.404900 -20.920500 -4.001281 -5.293512 2.549862 23.201934 13.415519 -11.193249 -1.521443 -6.047431 22.455051 0.580045 -7.639153 -11.947665 -1.692300 8.193400 -23.302900 -3.432857 -0.542873 0.225349 2.586427 -1.414995 22.526389 5.253230 -0.737041 2.745468 -27.511272 -18.825082 16.165453 1.662073 -27.489766 20.574014 3.908800 -15.454000 13.812800 -4.892186 -7.613040 1.396237 14.911656 -55.531312 -46.507921 123.395678 -54.555518 -88.647375 -4.946942 -3.691550 -69.323155 -52.415414 29.503769 -26.711800 -7.125000 0.000000 0.000000 -65.793500 46.408500 -4.187800 4.439066 7.168344 -0.022347 136.938008 75.645552 63.437743 -5.630186 6.431308 0.465045 1.025337 -4.344619 82.295240 30.989247 9.252260 4.557900 7.125000 0.000000 0.000000 35.180200 -19.351000 27.217600 
0.313295 17.608176 -1.312781 -2.381828 5.948140 5.434006 1.791930 5.006490 2.961392 -14.696558 -22.433962 -13.410550 1.146255 7.432230 25.251935 -0.083678 1.273208 -5.376628 1.439000 -7.584000 -21.457500 -3.993085 -5.309242 2.530346 23.314168 13.299155 -10.705483 -1.487378 -5.954094 22.219567 0.584813 -7.637547 -11.913526 -1.711000 8.236200 -23.433900 -3.564419 -0.579942 -0.118879 2.652127 -1.466476 22.255247 5.358917 -0.755699 2.759642 -27.458572 -18.808269 16.118879 1.716864 -27.496717 20.404691 3.921100 -15.456400 13.727900 -4.906763 -7.567375 1.507430 15.821823 -54.504416 -47.055898 123.374646 -54.558986 -88.635875 -4.924145 -3.713750 -69.437275 -52.297684 29.355862 -26.509700 -7.125000 0.000000 0.000000 -65.588700 46.335700 -3.948000 4.474530 7.157632 -0.110112 137.892327 75.837140 64.154039 -5.565424 6.327248 0.477813 1.028272 -4.341643 82.635268 30.841238 9.538031 4.657500 7.125000 0.000000 0.000000 35.041500 -19.139200 27.267700 
0.311563 17.604406 -1.283031 -2.405797 5.822232 5.251368 1.790075 5.015409 2.974272 -14.750267 -22.326564 -13.094048 1.147844 7.433307 25.281973 -0.073349 1.288179 -5.629630 1.458000 -7.631700 -21.600800 -3.984521 -5.323831 2.516278 23.388016 13.298406 -10.254057 -1.451424 -5.862744 21.978732 0.602980 -7.707023 -11.841644 -1.752100 8.329500 -23.719400 -3.706044 -0.590086 -0.370274 2.769804 -1.493255 22.106015 5.516666 -0.759771 2.843997 -27.434895 -18.895610 15.730758 1.798623 -27.572421 20.203204 3.906000 -15.472800 13.698500 -4.925364 -7.538409 1.677299 16.968287 -53.547601 -48.041704 123.598350 -54.497388 -88.831531 -4.932317 -3.683218 -69.444152 -51.925610 29.602485 -26.407500 -7.125000 0.000000 0.000000 -65.750600 46.558900 -4.600900 4.503243 7.157340 -0.241461 139.403247 76.229125 65.578300 -5.534281 6.259925 0.511159 1.010393 -4.428197 83.020176 31.486161 9.710452 4.870500 7.125000 0.000000 0.000000 35.261900 -18.863900 27.834100 
0.313804 17.601859 -1.249205 -2.503497 5.754796 5.051649 1.792919 5.033643 2.985631 -14.753795 -22.334525 -12.698289 1.147016 7.426620 25.291195 -0.073838 1.337581 -5.802028 1.411200 -7.513600 -21.246100 -3.968943 -5.338231 2.498472 23.525821 13.173794 -9.800798 -1.419617 -5.776177 21.759390 0.605174 -7.695292 -11.819062 -1.806500 8.450700 -24.091700 -3.750991 -0.646388 -0.657553 2.956860 -1.587809 21.790976 5.595958 -0.787011 2.786994 -27.600097 -18.830718 15.837890 1.921784 -27.565634 19.871052 3.976300 -15.488300 13.547000 -4.943779 -7.515987 1.736679 17.485867 -52.676824 -48.253820 123.699720 -54.456084 -88.927234 -4.939538 -3.663556 -69.479814 -51.726609 29.794141 -26.396600 -7.125000 0.000000 0.000000 -65.902000 46.714400 -5.062700 4.535888 7.145296 -0.291315 140.121657 76.353723 66.236950 -5.543870 6.278582 0.534577 0.957578 -4.517314 83.340063 32.246874 9.552201 4.961600 7.125000 0.000000 0.000000 35.611400 -18.830700 28.319200 
0.316962 17.601146 -1.212730 -2.487907 5.704787 4.787671 1.768761 5.062125 3.013972 -14.884249 -22.323515 -12.240144 1.150222 7.425466 25.321062 -0.070944 1.368735 -5.978469 1.332700 -7.310100 -20.637500 -3.973037 -5.350562 2.470792 23.570746 12.949869 -9.238239 -1.386623 -5.678307 21.524630 0.598008 -7.652732 -11.872034 -1.857800 8.563500 -24.439100 -3.486476 -0.616318 -1.011396 2.682475 -1.506966 21.473836 5.367051 -0.756909 2.686834 -27.591382 -18.844940 16.281020 2.175742 -27.686450 19.639826 4.101900 -15.557500 13.427200 -4.924708 -7.464946 1.809291 18.307270 -52.211933 -48.412002 123.746546 -54.474868 -88.973614 -4.949262 -3.658160 -69.440036 -51.761837 29.873539 -26.485000 -7.125000 0.000000 0.000000 -66.013100 46.764900 -5.225900 4.590556 7.146758 -0.333757 140.153098 76.535456 65.738190 -5.611117 6.405509 0.535233 0.877659 -4.545699 83.651568 32.460903 9.184133 4.841000 7.125000 0.000000 0.000000 35.787300 -19.075300 28.283500 
